<?xml version="1.0" encoding="utf-8"?>
<!-- Generator: Adobe Illustrator 23.0.3, SVG Export Plug-In . SVG Version: 6.00 Build 0)  -->
<svg version="1.1" id="Capa_1" xmlns="http://www.w3.org/2000/svg" xmlns:xlink="http://www.w3.org/1999/xlink" x="0px" y="0px"
	 viewBox="0 0 1200 1200" enable-background="new 0 0 1200 1200" xml:space="preserve">
<g>
	<g>
		<path d="M546.496,234.455c-46.195,0-83.778-37.583-83.778-83.778s37.583-83.778,83.778-83.778s83.778,37.583,83.778,83.778
			S592.691,234.455,546.496,234.455z M546.496,121.577c-16.045,0-29.1,13.053-29.1,29.1s13.055,29.1,29.1,29.1
			c16.045,0,29.1-13.053,29.1-29.1S562.541,121.577,546.496,121.577z"/>
	</g>
	<g>
		<path d="M346.213,434.736c-46.195,0-83.778-37.583-83.778-83.778c0-46.197,37.583-83.78,83.778-83.78s83.778,37.583,83.778,83.78
			C429.991,397.152,392.408,434.736,346.213,434.736z M346.213,321.855c-16.045,0-29.1,13.055-29.1,29.102
			c0,16.047,13.055,29.1,29.1,29.1c16.045,0,29.1-13.053,29.1-29.1C375.313,334.911,362.258,321.855,346.213,321.855z"/>
	</g>
	<g>
		<path d="M1066.222,430.989c-46.195,0-83.778-37.583-83.778-83.778s37.583-83.778,83.778-83.778
			c46.195,0,83.778,37.583,83.778,83.778S1112.417,430.989,1066.222,430.989z M1066.222,318.111c-16.045,0-29.1,13.053-29.1,29.1
			c0,16.047,13.055,29.1,29.1,29.1c16.045,0,29.1-13.053,29.1-29.1C1095.322,331.164,1082.267,318.111,1066.222,318.111z"/>
	</g>
	<g>
		<path d="M826.462,430.989c-46.195,0-83.778-37.583-83.778-83.778s37.583-83.778,83.778-83.778s83.778,37.583,83.778,83.778
			S872.657,430.989,826.462,430.989z M826.462,318.111c-16.045,0-29.1,13.053-29.1,29.1c0,16.047,13.055,29.1,29.1,29.1
			c16.045,0,29.1-13.053,29.1-29.1C855.562,331.164,842.507,318.111,826.462,318.111z"/>
	</g>
	<g>
		<path d="M713.584,852.933c-46.195,0-83.778-37.583-83.778-83.778c0-46.197,37.583-83.78,83.778-83.78s83.778,37.583,83.778,83.78
			C797.362,815.35,759.779,852.933,713.584,852.933z M713.584,740.053c-16.045,0-29.1,13.055-29.1,29.102s13.055,29.1,29.1,29.1
			c16.045,0,29.1-13.053,29.1-29.1S729.629,740.053,713.584,740.053z"/>
	</g>
	<g>
		<path d="M399.313,974.625c-46.195,0-83.778-37.583-83.778-83.778s37.583-83.778,83.778-83.778s83.778,37.583,83.778,83.778
			S445.508,974.625,399.313,974.625z M399.313,861.747c-16.045,0-29.1,13.053-29.1,29.1s13.055,29.1,29.1,29.1
			s29.1-13.053,29.1-29.1S415.358,861.747,399.313,861.747z"/>
	</g>
	<g>
		<path d="M145.87,747.411c-46.195,0-83.778-37.583-83.778-83.778s37.583-83.778,83.778-83.778s83.778,37.583,83.778,83.778
			S192.065,747.411,145.87,747.411z M145.87,634.533c-16.045,0-29.1,13.053-29.1,29.1c0,16.047,13.055,29.1,29.1,29.1
			s29.1-13.053,29.1-29.1C174.97,647.585,161.915,634.533,145.87,634.533z"/>
	</g>
	<g>
		<path d="M688.941,598.976c-46.195,0-83.778-37.583-83.778-83.778s37.583-83.778,83.778-83.778s83.778,37.583,83.778,83.778
			S735.136,598.976,688.941,598.976z M688.941,486.098c-16.045,0-29.1,13.053-29.1,29.1c0,16.047,13.055,29.1,29.1,29.1
			c16.045,0,29.1-13.053,29.1-29.1C718.041,499.151,704.986,486.098,688.941,486.098z"/>
	</g>
	<g>
		<polygon points="603.558,378.297 402.652,378.297 402.652,323.619 580.915,323.619 775.296,129.237 893.631,129.237 
			1058.642,294.246 1019.977,332.907 870.988,183.913 797.94,183.913 		"/>
	</g>
	<g>
		<polygon points="764.713,757.934 726.048,719.274 793.377,651.939 1018.34,651.939 1095.322,574.955 1095.322,524 959.195,524 
			844.213,409.018 882.878,370.357 981.839,469.322 1150,469.322 1150,597.603 1040.983,706.617 816.025,706.617 		"/>
	</g>
	<g>
		<polygon points="422.796,591.486 273.348,591.481 190.987,509.122 50,509.122 50,346.134 274.596,123.338 490.057,123.338 
			490.057,178.014 297.111,178.014 104.678,368.91 104.678,454.447 213.631,454.447 295.992,536.808 400.153,536.808 
			449.103,487.859 632.502,487.859 632.502,542.537 471.747,542.537 		"/>
	</g>
	<g>
		<polygon points="459.728,883.299 421.063,844.638 507.867,757.831 507.867,704.529 418.784,704.529 297.725,583.475 
			336.391,544.814 441.427,649.851 562.545,649.851 562.545,780.479 		"/>
	</g>
	<g>
		<polygon points="297.28,858.149 185.774,858.149 118.531,790.909 118.531,720.071 173.209,720.071 173.209,768.261 
			208.417,803.471 242.602,803.471 242.602,700.039 368.595,700.039 410.773,657.859 449.438,696.52 391.238,754.715 
			297.28,754.715 		"/>
	</g>
	<g>
		<polygon points="317.98,1133.101 279.314,1094.44 371.974,1001.78 371.974,947.285 426.652,947.285 426.652,1024.428 		"/>
	</g>
</g>
</svg>
