<?xml version="1.0" encoding="utf-8"?>
<!-- Designed by Vexels.com - 2020 All Rights Reserved - https://vexels.com/terms-and-conditions/  -->
<svg version="1.1" id="Capa_1" xmlns="http://www.w3.org/2000/svg" xmlns:xlink="http://www.w3.org/1999/xlink" x="0px" y="0px"
	 viewBox="0 0 1200 1200" enable-background="new 0 0 1200 1200" xml:space="preserve">
<g>
	<g id="XMLID_2_">
		<g>
			<path fill="#8C6962" d="M1039.258,1121.419H160.742c31.055-57.161,98.828-94.336,175.391-94.336c25,0,49.349,3.971,72.461,11.849
				c6.445,2.279,13.607-0.456,16.992-6.445c31.836-56.25,100.326-92.578,174.414-92.578s142.578,36.328,174.349,92.578
				c3.385,5.925,10.547,8.724,17.057,6.445c23.112-7.878,47.526-11.849,72.461-11.849
				C940.43,1027.083,1008.203,1064.258,1039.258,1121.419z"/>
			<path fill="#BBFFDB" d="M810.482,559.57c53.06-30.924,117.773-30.859,170.768-0.326c0.456,61.133-31.445,117.513-84.44,148.372
				c-49.544,28.906-109.245,30.339-160.091,5.534c73.958-58.594,157.747-87.565,158.984-88.021
				c7.487-2.539,11.523-10.612,8.984-18.099s-10.612-11.458-18.099-8.984c-5.143,1.758-84.505,29.167-158.919,85.612
				C734.635,632.161,764.583,586.263,810.482,559.57z"/>
			<path fill="#BBFFDB" d="M337.695,174.414c-55.404,142.383-27.409,270.898,83.073,381.901
				c51.953,52.214,92.318,94.336,124.284,133.854c-47.591,13.672-147.917,13.086-226.953-36.393
				c-85.156-53.255-124.935-146.745-118.164-277.799C212.5,131.185,371.875,87.826,425.977,80.208
				c-6.706,51.888-10.156,198.372,129.818,336.719c43.034,42.578,64.583,88.021,64.063,135.156
				c-0.716,56.641-33.333,102.409-50.391,122.461c-34.18-42.643-76.367-86.068-128.385-138.346
				c-103.255-103.776-128.385-218.685-76.758-351.432c2.865-7.357-0.781-15.69-8.138-18.49
				C348.828,163.411,340.56,166.992,337.695,174.414z"/>
			<path fill="#8C6962" d="M199.935,375.977c-6.771,131.055,33.008,224.544,118.164,277.799
				c79.036,49.479,179.362,50.065,226.953,36.393c-31.966-39.518-72.331-81.641-124.284-133.854
				c-110.482-111.003-138.477-239.518-83.073-381.901c2.865-7.422,11.133-11.003,18.49-8.138c7.357,2.799,11.003,11.133,8.138,18.49
				c-51.628,132.747-26.497,247.656,76.758,351.432c52.018,52.279,94.206,95.703,128.385,138.346
				c17.057-20.052,49.674-65.82,50.391-122.461c0.521-47.135-21.029-92.578-64.063-135.156
				C415.82,278.581,419.271,132.096,425.977,80.208C371.875,87.826,212.5,131.185,199.935,375.977z M904.688,607.031
				c2.539,7.487-1.497,15.56-8.984,18.099c-1.237,0.456-85.026,29.427-158.984,88.021c50.846,24.805,110.547,23.372,160.091-5.534
				c52.995-30.859,84.896-87.24,84.44-148.372c-52.995-30.534-117.708-30.599-170.768,0.326
				c-45.898,26.693-75.846,72.591-82.813,124.089c74.414-56.445,153.776-83.854,158.919-85.612
				C894.076,595.573,902.148,599.544,904.688,607.031z M1074.805,1130.729c1.628,4.362,0.977,9.31-1.628,13.151
				c-2.734,3.841-7.096,6.12-11.784,6.12H138.607c-4.688,0-9.049-2.279-11.784-6.12c-2.604-3.841-3.255-8.789-1.628-13.151
				c29.427-79.102,114.193-132.227,210.938-132.227c24.219,0,47.917,3.32,70.638,9.961C445.964,948.242,518.88,911.328,600,911.328
				c16.797,0,33.268,1.693,49.154,4.688c-6.51-35.091-14.779-65.755-25.521-94.01c-2.344-2.604-3.581-5.924-3.646-9.31
				c-14.128-34.831-32.487-66.341-56.445-98.763c-19.661,7.227-48.958,12.109-83.073,12.109
				c-54.427,0-120.638-12.435-177.539-48.047c-65.039-40.69-140.625-126.367-131.51-303.516
				C187.63,58.268,440.365,50.065,442.904,50c0.13,0,0.195,0,0.26,0c4.362,0,8.464,1.953,11.198,5.404
				c2.734,3.385,3.711,7.943,2.734,12.24c-0.456,1.758-39.388,172.591,118.75,328.971c48.893,48.307,73.307,100.846,72.526,156.12
				c-0.911,70.703-42.839,124.674-61.133,144.987c19.271,26.367,35.417,53.125,49.023,81.901
				c17.057-26.823,38.411-50.456,61.328-71.159c-0.651-71.484,36.523-137.5,98.568-173.633c64.388-37.5,143.62-35.938,206.771,4.167
				c3.906,2.474,6.38,6.706,6.641,11.328c3.711,74.74-33.984,144.466-98.372,181.966c-31.055,18.099-65.495,27.083-99.935,27.083
				c-33.854,0-67.643-8.789-98.177-26.107c-24.74,22.721-46.94,49.154-62.826,79.167c12.5,32.943,22.135,69.401,29.232,111.458
				c47.656,15.56,87.956,44.987,113.737,84.57c22.721-6.641,46.484-9.961,70.638-9.961
				C960.612,998.503,1045.378,1051.628,1074.805,1130.729z M160.742,1121.419h878.516c-31.055-57.161-98.828-94.336-175.391-94.336
				c-24.935,0-49.349,3.971-72.461,11.849c-6.51,2.279-13.672-0.521-17.057-6.445c-31.771-56.25-100.26-92.578-174.349-92.578
				s-142.578,36.328-174.414,92.578c-3.385,5.99-10.547,8.724-16.992,6.445c-23.112-7.878-47.461-11.849-72.461-11.849
				C259.57,1027.083,191.797,1064.258,160.742,1121.419z"/>
		</g>
	</g>
</g>
</svg>
